<svg width="203" height="203" viewBox="0 0 203 203" fill="none" xmlns="http://www.w3.org/2000/svg">
<path d="M101.325 202.65C157.285 202.65 202.65 157.285 202.65 101.325C202.65 45.3647 157.285 0 101.325 0C45.3647 0 0 45.3647 0 101.325C0 157.285 45.3647 202.65 101.325 202.65Z" fill="#837F89"/>
<path opacity="0.2" d="M63.3285 158.32C63.3285 161.803 60.4787 164.653 56.9957 164.653H50.6629C47.1798 164.653 44.3301 161.803 44.3301 158.32V123.49C44.3301 120.007 47.1798 117.157 50.6629 117.157H56.9957C60.4787 117.157 63.3285 120.007 63.3285 123.49V158.32Z" fill="#231F20"/>
<path opacity="0.2" d="M158.32 158.32C158.32 161.803 155.47 164.653 151.987 164.653H145.655C142.172 164.653 139.322 161.803 139.322 158.32V123.49C139.322 120.007 142.172 117.157 145.655 117.157H151.987C155.47 117.157 158.32 120.007 158.32 123.49V158.32Z" fill="#231F20"/>
<path d="M63.3285 151.987C63.3285 155.471 60.4787 158.32 56.9957 158.32H50.6629C47.1798 158.32 44.3301 155.471 44.3301 151.987V117.157C44.3301 113.674 47.1798 110.824 50.6629 110.824H56.9957C60.4787 110.824 63.3285 113.674 63.3285 117.157V151.987Z" fill="black"/>
<path d="M158.32 151.987C158.32 155.471 155.47 158.32 151.987 158.32H145.655C142.172 158.32 139.322 155.471 139.322 151.987V117.157C139.322 113.674 142.172 110.824 145.655 110.824H151.987C155.47 110.824 158.32 113.674 158.32 117.157V151.987Z" fill="black"/>
<path opacity="0.2" d="M139.322 117.157H63.3285C52.8794 117.157 44.3301 108.608 44.3301 98.1586V96.892L50.6629 64.9113C53.8293 53.8289 60.7954 47.4961 69.6613 47.4961H132.989C141.855 47.4961 148.821 53.8289 151.671 64.9113V65.228L158.321 98.1586C158.321 108.608 149.771 117.157 139.322 117.157ZM56.9957 98.7919C57.3123 101.958 59.8455 104.491 63.3285 104.491H139.322C142.489 104.491 145.338 101.958 145.655 98.7919L139.639 68.0777C138.689 65.5446 136.789 60.1617 132.989 60.1617H69.6613C65.8616 60.1617 63.9618 65.5446 63.0119 68.0777L56.9957 98.7919Z" fill="#231F20"/>
<path d="M151.988 91.8258C151.988 98.7919 146.288 104.491 139.322 104.491H63.3282C56.3621 104.491 50.6626 98.7919 50.6626 91.8258L56.9954 60.1617C58.5786 53.8289 62.6949 47.4961 69.661 47.4961H132.989C139.955 47.4961 144.072 53.8289 145.655 60.1617L151.988 91.8258Z" stroke="black" stroke-width="17.1973" stroke-miterlimit="10"/>
<g opacity="0.2">
<path d="M164.653 132.989C164.653 139.955 158.954 145.655 151.988 145.655H50.6627C43.6966 145.655 37.9971 139.955 37.9971 132.989V117.157C37.9971 110.191 43.6966 104.491 50.6627 104.491H151.988C158.954 104.491 164.653 110.191 164.653 117.157V132.989Z" fill="black"/>
<path d="M151.987 151.987H50.6625C40.2134 151.987 31.6641 143.438 31.6641 132.989V117.157C31.6641 106.708 40.2134 98.1586 50.6625 98.1586H151.987C162.437 98.1586 170.986 106.708 170.986 117.157V132.989C170.986 143.438 162.437 151.987 151.987 151.987ZM50.6625 110.824C47.1795 110.824 44.3297 113.674 44.3297 117.157V132.989C44.3297 136.472 47.1795 139.322 50.6625 139.322H151.987C155.471 139.322 158.32 136.472 158.32 132.989V117.157C158.32 113.674 155.471 110.824 151.987 110.824H50.6625Z" fill="black"/>
</g>
<path d="M164.653 126.656C164.653 133.622 158.954 139.322 151.988 139.322H50.6627C43.6966 139.322 37.9971 133.622 37.9971 126.656V110.824C37.9971 103.858 43.6966 98.1586 50.6627 98.1586H151.988C158.954 98.1586 164.653 103.858 164.653 110.824V126.656Z" fill="black" stroke="black" stroke-width="17.1973" stroke-miterlimit="10"/>
<path d="M66.4948 120.323C66.4948 127.29 60.7953 132.989 53.8292 132.989C46.8631 132.989 41.1636 127.29 41.1636 120.323C41.1636 113.357 46.8631 107.658 53.8292 107.658C60.7953 107.658 66.4948 113.357 66.4948 120.323Z" fill="white" stroke="black" stroke-width="8.59863" stroke-miterlimit="10"/>
<path d="M161.487 120.323C161.487 127.29 155.787 132.989 148.821 132.989C141.855 132.989 136.155 127.29 136.155 120.323C136.155 113.357 141.855 107.658 148.821 107.658C155.787 107.658 161.487 113.357 161.487 120.323Z" fill="white" stroke="black" stroke-width="8.59863" stroke-miterlimit="10"/>
</svg>
