<!-- <?xml version="1.0" standalone="no"?>
<!DOCTYPE svg PUBLIC "-//W3C//DTD SVG 20010904//EN"
 "http://www.w3.org/TR/2001/REC-SVG-20010904/DTD/svg10.dtd"> -->
<svg version="1.0" xmlns="http://www.w3.org/2000/svg"
 width="567.000000pt" height="440.000000pt" viewBox="0 0 567.000000 440.000000"
 preserveAspectRatio="xMidYMid meet">

<g transform="translate(0.000000,440.000000) scale(0.100000,-0.100000)"
fill="#000000" stroke="none">
<path d="M2630 2990 c0 -12 103 -12 140 0 17 5 -1 8 -57 9 -49 1 -83 -3 -83
-9z"/>
<path d="M2228 2973 c7 -3 16 -2 19 1 4 3 -2 6 -13 5 -11 0 -14 -3 -6 -6z"/>
<path d="M2720 2566 c0 -3 12 -17 28 -33 15 -15 38 -41 50 -58 l23 -30 -15 31
c-25 53 -86 116 -86 90z"/>
</g>
</svg>
