<svg width="2000" height="1200" viewBox="0 0 895 390" fill="none" xmlns="http://www.w3.org/2000/svg">
<path d="M436.325 205.649C492.285 205.649 537.649 160.285 537.649 104.325C537.649 48.3646 492.285 3 436.325 3C380.365 3 335 48.3646 335 104.325C335 160.285 380.365 205.649 436.325 205.649Z" fill="#837F89"/>
<path opacity="0.2" d="M499.652 145.488C499.652 152.454 493.953 158.153 486.987 158.153H385.662C378.696 158.153 372.997 152.454 372.997 145.488V82.1598C372.997 75.1938 378.696 69.4943 385.662 69.4943H486.987C493.953 69.4943 499.652 75.1938 499.652 82.1598V145.488Z" fill="#231F20"/>
<path d="M499.652 139.155C499.652 146.121 493.953 151.821 486.987 151.821H385.662C378.696 151.821 372.997 146.121 372.997 139.155V75.8271C372.997 68.861 378.696 63.1615 385.662 63.1615H486.987C493.953 63.1615 499.652 68.861 499.652 75.8271V139.155Z" fill="black"/>
<path d="M372.997 82.1599H499.652V101.158H372.997V82.1599Z" fill="white"/>
<path d="M455.323 139.155C458.821 139.155 461.656 136.32 461.656 132.822C461.656 129.325 458.821 126.489 455.323 126.489C451.826 126.489 448.99 129.325 448.99 132.822C448.99 136.32 451.826 139.155 455.323 139.155Z" fill="#3916B1"/>
<path d="M480.654 139.155C484.152 139.155 486.987 136.32 486.987 132.822C486.987 129.325 484.152 126.489 480.654 126.489C477.157 126.489 474.321 129.325 474.321 132.822C474.321 136.32 477.157 139.155 480.654 139.155Z" fill="#3916B1"/>
<path d="M429.992 139.155C433.489 139.155 436.325 136.32 436.325 132.822C436.325 129.325 433.489 126.489 429.992 126.489C426.494 126.489 423.659 129.325 423.659 132.822C423.659 136.32 426.494 139.155 429.992 139.155Z" fill="#3916B1"/>
<path d="M789.325 205.65C845.285 205.65 890.65 160.285 890.65 104.325C890.65 48.3647 845.285 3 789.325 3C733.365 3 688 48.3647 688 104.325C688 160.285 733.365 205.65 789.325 205.65Z" fill="#837F89"/>
<path opacity="0.2" d="M801.991 75.8274V47.3297H748.162C742.779 47.3297 738.662 51.446 738.662 56.8289V164.487C738.662 169.87 742.779 173.986 748.162 173.986H830.488C835.871 173.986 839.987 169.87 839.987 164.487V85.3266H811.49C806.107 85.3266 801.991 81.2103 801.991 75.8274Z" fill="#231F20"/>
<path d="M801.991 69.4945V40.9969H748.162C742.779 40.9969 738.662 45.1132 738.662 50.4961V158.154C738.662 163.537 742.779 167.653 748.162 167.653H830.488C835.871 167.653 839.987 163.537 839.987 158.154V78.9938H811.49C806.107 78.9938 801.991 74.8774 801.991 69.4945Z" fill="#E0E0D1"/>
<path opacity="0.2" d="M805.157 76.7774L839.987 107.492V78.9939L805.157 76.7774Z" fill="#231F20"/>
<path d="M801.991 40.9969V69.4945C801.991 74.8774 806.107 78.9938 811.49 78.9938H839.987L801.991 40.9969Z" fill="white"/>
<path opacity="0.2" d="M757.661 72.6609H788.058V78.9938H757.661V72.6609Z" fill="#231F20"/>
<path opacity="0.2" d="M757.661 104.325H820.989V110.658H757.661V104.325Z" fill="#231F20"/>
<path opacity="0.2" d="M757.661 88.493H820.989V94.8258H757.661V88.493Z" fill="#231F20"/>
<path opacity="0.2" d="M757.661 120.157H820.989V126.49H757.661V120.157Z" fill="#231F20"/>
<path opacity="0.2" d="M757.661 135.989H820.989V142.322H757.661V135.989Z" fill="#231F20"/>
<path d="M39.1636 281.92V280H44.2516V281.92H42.5956L46.9156 295.816L51.2596 281.92H49.6036V280H54.6916V281.92H53.4676L48.4516 298H45.4036L40.3876 281.92H39.1636ZM57.0802 282.4H68.5042V287.104H66.5842V284.32H60.9682V289.24H66.5842V291.16H60.9682V296.08H66.5842V293.296H68.5042V298H57.0802V296.08H58.7602V284.32H57.0802V282.4ZM72.338 282.4H77.906V284.32H76.226V289.24H83.618V284.32H81.938V282.4H87.506V284.32H85.826V296.08H87.506V298H81.938V296.08H83.618V291.16H76.226V296.08H77.906V298H72.338V296.08H74.018V284.32H72.338V282.4ZM91.1058 296.08H93.0258V284.32H91.1058V282.4H97.1538V284.32H95.2338V296.08H97.1538V298H91.1058V296.08ZM109.864 292.336H111.784V295.36L109.288 298H103.24L100.744 295.36V285.04L103.24 282.4H109.288L111.784 285.04V288.064H109.864V286.024L108.352 284.464H104.2L102.952 285.736V294.664L104.176 295.936H108.328L109.864 294.376V292.336ZM123.967 282.4H129.295V284.32H127.855V295.36L125.359 298H118.831L116.335 295.36V284.32H114.895V282.4H120.223V284.32H118.543V294.664L119.767 295.936H124.399L125.647 294.664V284.32H123.967V282.4ZM132.9 282.4H138.708V284.32H136.788V296.08H142.02V293.296H143.844V298H132.9V296.08H134.58V284.32H132.9V282.4ZM148.732 298L146.236 295.36V285.04L148.732 282.4H155.5L157.996 285.04V295.36L155.5 298H148.732ZM149.668 295.936H154.54L155.788 294.664V285.736L154.564 284.464H149.692L148.444 285.736V294.664L149.668 295.936ZM172.406 288.064H170.414V285.952L168.974 284.464H165.302L164.054 285.736V288.088L165.23 289.288H170.222L172.646 291.832V295.36L170.15 298H164.102L161.606 295.36V292.336H163.598V294.448L165.062 295.936H169.214L170.438 294.664V292.528L169.286 291.352H164.294L161.846 288.784V285.04L164.342 282.4H169.91L172.406 285.04V288.064ZM14.9714 318.88H11.6594V316.96H16.8914V322.36L14.3954 325H8.10741L5.61141 322.36V312.04L8.10741 309.4H14.3954L16.8914 312.04V315.064H14.9714V313.024L13.4594 311.464H9.06741L7.81941 312.736V321.664L9.04341 322.936H13.4354L14.9714 321.376V318.88ZM28.8942 325V323.08H30.4782L29.4462 320.104H23.4462L22.4142 323.08H24.0222V325H18.9342V323.08H20.2062L24.2622 311.32H23.2542V309.4H29.6622V311.32H28.6302L32.6862 323.08H33.9822V325H28.8942ZM26.4462 311.392L24.0942 318.184H28.7982L26.4462 311.392ZM36.2677 309.4H45.8677L48.3637 312.04V316.84L45.9397 319.384L48.1717 323.08H49.4437V325H45.1717V323.08H45.8437L43.6837 319.48H40.1557V323.08H41.5957V325H36.2677V323.08H37.9477V311.32H36.2677V309.4ZM40.1557 311.464V317.416H44.9077L46.2997 316V312.88L44.9317 311.464H40.1557ZM61.4489 325V323.08H63.0329L62.0009 320.104H56.0009L54.9689 323.08H56.5769V325H51.4889V323.08H52.7609L56.8169 311.32H55.8089V309.4H62.2169V311.32H61.1849L65.2409 323.08H66.5369V325H61.4489ZM59.0009 311.392L56.6489 318.184H61.3529L59.0009 311.392ZM72.7103 323.08H74.3903V325H68.8223V323.08H70.5023V311.32H68.8223V309.4H73.8143L80.8223 322.648V311.32H79.1423V309.4H84.7103V311.32H83.0303V325H79.7183L72.7103 311.776V323.08ZM96.8429 325H89.8349V323.08H92.2349V311.32H88.9229V314.104H87.0989V309.4H99.5789V314.104H97.7549V311.32H94.4429V323.08H96.8429V325ZM101.981 323.08H103.901V311.32H101.981V309.4H108.029V311.32H106.109V323.08H108.029V325H101.981V323.08ZM113.419 311.32V314.104H111.499V309.4H122.683V311.32L113.515 323.08H120.763V320.296H122.683V325H111.019V323.08L120.211 311.32H113.419ZM134.316 325V323.08H135.9L134.868 320.104H128.868L127.836 323.08H129.444V325H124.356V323.08H125.628L129.684 311.32H128.676V309.4H135.084V311.32H134.052L138.108 323.08H139.404V325H134.316ZM131.868 311.392L129.516 318.184H134.22L131.868 311.392ZM141.69 309.4H151.914L154.41 312.04V322.36L151.914 325H141.69V323.08H143.37V311.32H141.69V309.4ZM145.578 322.936H150.954L152.202 321.664V312.736L150.978 311.464H145.578V322.936ZM160.756 325L158.26 322.36V312.04L160.756 309.4H167.524L170.02 312.04V322.36L167.524 325H160.756ZM161.692 322.936H166.564L167.812 321.664V312.736L166.588 311.464H161.716L160.468 312.736V321.664L161.692 322.936ZM184.429 315.064H182.437V312.952L180.997 311.464H177.325L176.077 312.736V315.088L177.253 316.288H182.245L184.669 318.832V322.36L182.173 325H176.125L173.629 322.36V319.336H175.621V321.448L177.085 322.936H181.237L182.461 321.664V319.528L181.309 318.352H176.317L173.869 315.784V312.04L176.365 309.4H181.933L184.429 312.04V315.064ZM205.29 325H198.762V323.08H200.922V320.104L196.746 311.32H195.21V309.4H200.298V311.32H198.858L202.002 317.968L205.17 311.32H203.73V309.4H208.818V311.32H207.282L203.13 320.056V323.08H205.29V325ZM43.372 346.336H45.292V349.36L42.796 352H36.748L34.252 349.36V339.04L36.748 336.4H42.796L45.292 339.04V342.064H43.372V340.024L41.86 338.464H37.708L36.46 339.736V348.664L37.684 349.936H41.836L43.372 348.376V346.336ZM51.1387 352L48.6427 349.36V339.04L51.1387 336.4H57.9067L60.4027 339.04V349.36L57.9067 352H51.1387ZM52.0747 349.936H56.9467L58.1947 348.664V339.736L56.9707 338.464H52.0987L50.8507 339.736V348.664L52.0747 349.936ZM68.14 350.08H69.82V352H64.252V350.08H65.932V338.32H64.252V336.4H69.244L76.252 349.648V338.32H74.572V336.4H80.14V338.32H78.46V352H75.148L68.14 338.776V350.08ZM83.7286 336.4H95.1526V341.104H93.2326V338.32H87.6166V343.24H93.2326V345.16H87.6166V350.08H89.5366V352H83.7286V350.08H85.4086V338.32H83.7286V336.4ZM97.7855 350.08H99.7055V338.32H97.7855V336.4H103.833V338.32H101.913V350.08H103.833V352H97.7855V350.08ZM115.824 352V350.08H117.408L116.376 347.104H110.376L109.344 350.08H110.952V352H105.864V350.08H107.136L111.192 338.32H110.184V336.4H116.592V338.32H115.56L119.616 350.08H120.912V352H115.824ZM113.376 338.392L111.024 345.184H115.728L113.376 338.392ZM123.197 336.4H132.797L135.293 339.04V342.4L133.997 343.768L135.773 345.616V349.36L133.277 352H123.197V350.08H124.877V338.32H123.197V336.4ZM127.085 344.896V349.936H132.317L133.709 348.52V346.456L132.197 344.896H127.085ZM127.085 338.464V342.976H131.837L133.229 341.56V339.88L131.861 338.464H127.085ZM139.604 336.4H145.412V338.32H143.492V350.08H148.724V347.296H150.548V352H139.604V350.08H141.284V338.32H139.604V336.4ZM152.94 336.4H164.364V341.104H162.444V338.32H156.828V343.24H162.444V345.16H156.828V350.08H162.444V347.296H164.364V352H152.94V350.08H154.62V338.32H152.94V336.4ZM178.757 342.064H176.765V339.952L175.325 338.464H171.653L170.405 339.736V342.088L171.581 343.288H176.573L178.997 345.832V349.36L176.501 352H170.453L167.957 349.36V346.336H169.949V348.448L171.413 349.936H175.565L176.789 348.664V346.528L175.637 345.352H170.645L168.197 342.784V339.04L170.693 336.4H176.261L178.757 339.04V342.064Z" fill="white"/>
<path d="M343.58 287H353.18L355.676 289.64V295.16L353.18 297.8H347.468V303.08H349.388V305H343.58V303.08H345.26V288.92H343.58V287ZM347.468 289.064V295.736H352.22L353.612 294.32V290.48L352.244 289.064H347.468ZM366.957 305V303.08H368.541L367.509 300.104H361.509L360.477 303.08H362.085V305H356.997V303.08H358.269L362.325 291.32H361.317V289.4H367.725V291.32H366.693L370.749 303.08H372.045V305H366.957ZM364.509 291.392L362.157 298.184H366.861L364.509 291.392ZM383.69 298.88H380.378V296.96H385.61V302.36L383.114 305H376.826L374.33 302.36V292.04L376.826 289.4H383.114L385.61 292.04V295.064H383.69V293.024L382.178 291.464H377.786L376.538 292.736V301.664L377.762 302.936H382.154L383.69 301.376V298.88ZM391.709 305L389.213 302.36V292.04L391.709 289.4H398.477L400.973 292.04V302.36L398.477 305H391.709ZM392.645 302.936H397.517L398.765 301.664V292.736L397.541 291.464H392.669L391.421 292.736V301.664L392.645 302.936ZM415.382 295.064H413.39V292.952L411.95 291.464H408.278L407.03 292.736V295.088L408.206 296.288H413.198L415.622 298.832V302.36L413.126 305H407.078L404.582 302.36V299.336H406.574V301.448L408.038 302.936H412.19L413.414 301.664V299.528L412.262 298.352H407.27L404.822 295.784V292.04L407.318 289.4H412.886L415.382 292.04V295.064ZM438.164 295.064H436.172V292.952L434.732 291.464H431.06L429.812 292.736V295.088L430.988 296.288H435.98L438.404 298.832V302.36L435.908 305H429.86L427.364 302.36V299.336H429.356V301.448L430.82 302.936H434.972L436.196 301.664V299.528L435.044 298.352H430.052L427.604 295.784V292.04L430.1 289.4H435.668L438.164 292.04V295.064ZM441.994 289.4H453.418V294.104H451.498V291.32H445.882V296.24H451.498V298.16H445.882V303.08H451.498V300.296H453.418V305H441.994V303.08H443.674V291.32H441.994V289.4ZM466.612 298.88H463.3V296.96H468.532V302.36L466.036 305H459.748L457.252 302.36V292.04L459.748 289.4H466.036L468.532 292.04V295.064H466.612V293.024L465.1 291.464H460.708L459.46 292.736V301.664L460.684 302.936H465.076L466.612 301.376V298.88ZM480.967 289.4H486.295V291.32H484.855V302.36L482.359 305H475.831L473.335 302.36V291.32H471.895V289.4H477.223V291.32H475.543V301.664L476.767 302.936H481.399L482.647 301.664V291.32H480.967V289.4ZM489.9 289.4H499.5L501.996 292.04V296.84L499.572 299.384L501.804 303.08H503.076V305H498.804V303.08H499.476L497.316 299.48H493.788V303.08H495.228V305H489.9V303.08H491.58V291.32H489.9V289.4ZM493.788 291.464V297.416H498.54L499.932 296V292.88L498.564 291.464H493.788ZM509.178 305L506.682 302.36V292.04L509.178 289.4H515.946L518.442 292.04V302.36L515.946 305H509.178ZM510.114 302.936H514.986L516.234 301.664V292.736L515.01 291.464H510.138L508.89 292.736V301.664L510.114 302.936ZM539.322 305H532.794V303.08H534.954V300.104L530.778 291.32H529.242V289.4H534.33V291.32H532.89L536.034 297.968L539.202 291.32H537.762V289.4H542.85V291.32H541.314L537.162 300.056V303.08H539.322V305ZM385.992 322.064H384V319.952L382.56 318.464H378.888L377.64 319.736V322.088L378.816 323.288H383.808L386.232 325.832V329.36L383.736 332H377.688L375.192 329.36V326.336H377.184V328.448L378.648 329.936H382.8L384.024 328.664V326.528L382.872 325.352H377.88L375.432 322.784V319.04L377.928 316.4H383.496L385.992 319.04V322.064ZM389.582 330.08H391.502V318.32H389.582V316.4H395.63V318.32H393.71V330.08H395.63V332H389.582V330.08ZM403.109 330.08H404.789V332H399.221V330.08H400.901V318.32H399.221V316.4H404.213L411.221 329.648V318.32H409.541V316.4H415.109V318.32H413.429V332H410.117L403.109 318.776V330.08ZM427.088 316.4H436.688L439.184 319.04V323.84L436.76 326.384L438.992 330.08H440.264V332H435.992V330.08H436.664L434.504 326.48H430.976V330.08H432.416V332H427.088V330.08H428.768V318.32H427.088V316.4ZM430.976 318.464V324.416H435.728L437.12 323V319.88L435.752 318.464H430.976ZM443.629 330.08H445.549V318.32H443.629V316.4H449.677V318.32H447.757V330.08H449.677V332H443.629V330.08ZM453.268 316.4H464.692V321.104H462.772V318.32H457.156V323.24H462.772V325.16H457.156V330.08H462.772V327.296H464.692V332H453.268V330.08H454.948V318.32H453.268V316.4ZM479.085 322.064H477.093V319.952L475.653 318.464H471.981L470.733 319.736V322.088L471.909 323.288H476.901L479.325 325.832V329.36L476.829 332H470.781L468.285 329.36V326.336H470.277V328.448L471.741 329.936H475.893L477.117 328.664V326.528L475.965 325.352H470.973L468.525 322.784V319.04L471.021 316.4H476.589L479.085 319.04V322.064ZM492.276 325.88H488.964V323.96H494.196V329.36L491.7 332H485.412L482.916 329.36V319.04L485.412 316.4H491.7L494.196 319.04V322.064H492.276V320.024L490.764 318.464H486.372L485.124 319.736V328.664L486.348 329.936H490.74L492.276 328.376V325.88ZM500.295 332L497.799 329.36V319.04L500.295 316.4H507.063L509.559 319.04V329.36L507.063 332H500.295ZM501.231 329.936H506.103L507.351 328.664V319.736L506.127 318.464H501.255L500.007 319.736V328.664L501.231 329.936Z" fill="white"/>
<path d="M685.373 274H694.973L697.469 276.64V282.16L694.973 284.8H689.261V290.08H691.181V292H685.373V290.08H687.053V275.92H685.373V274ZM689.261 276.064V282.736H694.013L695.405 281.32V277.48L694.037 276.064H689.261ZM700.35 276.4H709.95L712.446 279.04V283.84L710.022 286.384L712.254 290.08H713.526V292H709.254V290.08H709.926L707.766 286.48H704.238V290.08H705.678V292H700.35V290.08H702.03V278.32H700.35V276.4ZM704.238 278.464V284.416H708.99L710.382 283V279.88L709.014 278.464H704.238ZM719.627 292L717.131 289.36V279.04L719.627 276.4H726.395L728.891 279.04V289.36L726.395 292H719.627ZM720.563 289.936H725.435L726.683 288.664V279.736L725.459 278.464H720.587L719.339 279.736V288.664L720.563 289.936ZM741.86 286.336H743.78V289.36L741.284 292H735.236L732.74 289.36V279.04L735.236 276.4H741.284L743.78 279.04V282.064H741.86V280.024L740.348 278.464H736.196L734.948 279.736V288.664L736.172 289.936H740.324L741.86 288.376V286.336ZM747.131 276.4H758.555V281.104H756.635V278.32H751.019V283.24H756.635V285.16H751.019V290.08H756.635V287.296H758.555V292H747.131V290.08H748.811V278.32H747.131V276.4ZM772.949 282.064H770.957V279.952L769.517 278.464H765.845L764.597 279.736V282.088L765.773 283.288H770.765L773.189 285.832V289.36L770.693 292H764.645L762.149 289.36V286.336H764.141V288.448L765.605 289.936H769.757L770.981 288.664V286.528L769.829 285.352H764.837L762.389 282.784V279.04L764.885 276.4H770.453L772.949 279.04V282.064ZM779.275 292L776.779 289.36V279.04L779.275 276.4H786.043L788.539 279.04V289.36L786.043 292H779.275ZM780.211 289.936H785.083L786.331 288.664V279.736L785.107 278.464H780.235L778.987 279.736V288.664L780.211 289.936ZM811.339 282.064H809.347V279.952L807.907 278.464H804.235L802.987 279.736V282.088L804.163 283.288H809.155L811.579 285.832V289.36L809.083 292H803.035L800.539 289.36V286.336H802.531V288.448L803.995 289.936H808.147L809.371 288.664V286.528L808.219 285.352H803.227L800.779 282.784V279.04L803.275 276.4H808.843L811.339 279.04V282.064ZM815.17 276.4H826.594V281.104H824.674V278.32H819.058V283.24H824.674V285.16H819.058V290.08H824.674V287.296H826.594V292H815.17V290.08H816.85V278.32H815.17V276.4ZM839.788 285.88H836.476V283.96H841.708V289.36L839.212 292H832.924L830.428 289.36V279.04L832.924 276.4H839.212L841.708 279.04V282.064H839.788V280.024L838.276 278.464H833.884L832.636 279.736V288.664L833.86 289.936H838.252L839.788 288.376V285.88ZM854.143 276.4H859.471V278.32H858.031V289.36L855.535 292H849.007L846.511 289.36V278.32H845.071V276.4H850.399V278.32H848.719V288.664L849.943 289.936H854.575L855.823 288.664V278.32H854.143V276.4ZM863.076 276.4H872.676L875.172 279.04V283.84L872.748 286.384L874.98 290.08H876.252V292H871.98V290.08H872.652L870.492 286.48H866.964V290.08H868.404V292H863.076V290.08H864.756V278.32H863.076V276.4ZM866.964 278.464V284.416H871.716L873.108 283V279.88L871.74 278.464H866.964ZM882.354 292L879.858 289.36V279.04L882.354 276.4H889.122L891.618 279.04V289.36L889.122 292H882.354ZM883.29 289.936H888.162L889.41 288.664V279.736L888.186 278.464H883.314L882.066 279.736V288.664L883.29 289.936ZM787.576 319H781.048V317.08H783.208V314.104L779.032 305.32H777.496V303.4H782.584V305.32H781.144L784.288 311.968L787.456 305.32H786.016V303.4H791.104V305.32H789.568L785.416 314.056V317.08H787.576V319ZM745.865 330.4H755.465L757.961 333.04V337.84L755.537 340.384L757.769 344.08H759.041V346H754.769V344.08H755.441L753.281 340.48H749.753V344.08H751.193V346H745.865V344.08H747.545V332.32H745.865V330.4ZM749.753 332.464V338.416H754.505L755.897 337V333.88L754.529 332.464H749.753ZM771.047 346V344.08H772.631L771.599 341.104H765.599L764.567 344.08H766.175V346H761.087V344.08H762.359L766.415 332.32H765.407V330.4H771.815V332.32H770.783L774.839 344.08H776.135V346H771.047ZM768.599 332.392L766.247 339.184H770.951L768.599 332.392ZM778.42 330.4H788.02L790.516 333.04V338.08L788.02 340.72H782.308V344.08H784.228V346H778.42V344.08H780.1V332.32H778.42V330.4ZM782.308 332.464V338.656H787.06L788.452 337.24V333.88L787.084 332.464H782.308ZM793.157 344.08H795.077V332.32H793.157V330.4H799.205V332.32H797.285V344.08H799.205V346H793.157V344.08ZM802.795 330.4H813.019L815.515 333.04V343.36L813.019 346H802.795V344.08H804.475V332.32H802.795V330.4ZM806.683 343.936H812.059L813.307 342.664V333.736L812.083 332.464H806.683V343.936ZM821.861 346L819.365 343.36V333.04L821.861 330.4H828.629L831.125 333.04V343.36L828.629 346H821.861ZM822.797 343.936H827.669L828.917 342.664V333.736L827.693 332.464H822.821L821.573 333.736V342.664L822.797 343.936Z" fill="white"/>
<path d="M107.325 202.65C163.285 202.65 208.65 157.285 208.65 101.325C208.65 45.3647 163.285 0 107.325 0C51.3647 0 6 45.3647 6 101.325C6 157.285 51.3647 202.65 107.325 202.65Z" fill="#837F89"/>
<path opacity="0.2" d="M69.3283 158.32C69.3283 161.803 66.4785 164.653 62.9955 164.653H56.6626C53.1796 164.653 50.3298 161.803 50.3298 158.32V123.49C50.3298 120.007 53.1796 117.157 56.6626 117.157H62.9955C66.4785 117.157 69.3283 120.007 69.3283 123.49V158.32Z" fill="#231F20"/>
<path opacity="0.2" d="M164.32 158.32C164.32 161.803 161.47 164.653 157.987 164.653H151.655C148.172 164.653 145.322 161.803 145.322 158.32V123.49C145.322 120.007 148.172 117.157 151.655 117.157H157.987C161.47 117.157 164.32 120.007 164.32 123.49V158.32Z" fill="#231F20"/>
<path d="M69.3283 151.987C69.3283 155.471 66.4785 158.32 62.9955 158.32H56.6626C53.1796 158.32 50.3298 155.471 50.3298 151.987V117.157C50.3298 113.674 53.1796 110.824 56.6626 110.824H62.9955C66.4785 110.824 69.3283 113.674 69.3283 117.157V151.987Z" fill="black"/>
<path d="M164.32 151.987C164.32 155.471 161.47 158.32 157.987 158.32H151.655C148.172 158.32 145.322 155.471 145.322 151.987V117.157C145.322 113.674 148.172 110.824 151.655 110.824H157.987C161.47 110.824 164.32 113.674 164.32 117.157V151.987Z" fill="black"/>
<path opacity="0.2" d="M145.322 117.157H69.3283C58.8791 117.157 50.3298 108.608 50.3298 98.1586V96.892L56.6626 64.9113C59.8291 53.8289 66.7951 47.4961 75.6611 47.4961H138.989C147.855 47.4961 154.821 53.8289 157.671 64.9113V65.228L164.32 98.1586C164.32 108.608 155.771 117.157 145.322 117.157ZM62.9955 98.7919C63.3121 101.958 65.8452 104.491 69.3283 104.491H145.322C148.488 104.491 151.338 101.958 151.655 98.7919L145.639 68.0777C144.689 65.5446 142.789 60.1617 138.989 60.1617H75.6611C71.8614 60.1617 69.9616 65.5446 69.0116 68.0777L62.9955 98.7919Z" fill="#231F20"/>
<path d="M157.988 91.8258C157.988 98.7919 152.288 104.491 145.322 104.491H69.3282C62.3621 104.491 56.6626 98.7919 56.6626 91.8258L62.9954 60.1617C64.5786 53.8289 68.6949 47.4961 75.661 47.4961H138.989C145.955 47.4961 150.072 53.8289 151.655 60.1617L157.988 91.8258Z" stroke="black" stroke-width="17.1973" stroke-miterlimit="10"/>
<g opacity="0.2">
<path d="M170.653 132.989C170.653 139.955 164.954 145.655 157.987 145.655H56.6625C49.6964 145.655 43.9968 139.955 43.9968 132.989V117.157C43.9968 110.191 49.6964 104.491 56.6625 104.491H157.987C164.954 104.491 170.653 110.191 170.653 117.157V132.989Z" fill="black"/>
<path d="M157.987 151.987H56.6625C46.2134 151.987 37.6641 143.438 37.6641 132.989V117.157C37.6641 106.708 46.2134 98.1586 56.6625 98.1586H157.987C168.437 98.1586 176.986 106.708 176.986 117.157V132.989C176.986 143.438 168.437 151.987 157.987 151.987ZM56.6625 110.824C53.1795 110.824 50.3297 113.674 50.3297 117.157V132.989C50.3297 136.472 53.1795 139.322 56.6625 139.322H157.987C161.471 139.322 164.32 136.472 164.32 132.989V117.157C164.32 113.674 161.471 110.824 157.987 110.824H56.6625Z" fill="black"/>
</g>
<path d="M170.653 126.656C170.653 133.622 164.954 139.322 157.987 139.322H56.6625C49.6964 139.322 43.9968 133.622 43.9968 126.656V110.824C43.9968 103.858 49.6964 98.1586 56.6625 98.1586H157.987C164.954 98.1586 170.653 103.858 170.653 110.824V126.656Z" fill="black" stroke="black" stroke-width="17.1973" stroke-miterlimit="10"/>
<path d="M72.4946 120.323C72.4946 127.29 66.795 132.989 59.829 132.989C52.8629 132.989 47.1633 127.29 47.1633 120.323C47.1633 113.357 52.8629 107.658 59.829 107.658C66.795 107.658 72.4946 113.357 72.4946 120.323Z" fill="white" stroke="black" stroke-width="8.59863" stroke-miterlimit="10"/>
<path d="M167.487 120.323C167.487 127.29 161.787 132.989 154.821 132.989C147.855 132.989 142.155 127.29 142.155 120.323C142.155 113.357 147.855 107.658 154.821 107.658C161.787 107.658 167.487 113.357 167.487 120.323Z" fill="white" stroke="black" stroke-width="8.59863" stroke-miterlimit="10"/>
<path d="M468 53.7515L486.113 75.5031C486.113 75.5031 491.009 68.446 495.169 62.4521M516.3 32L504.225 49.4012" stroke="#4FE323" stroke-width="11.1006" stroke-linecap="round" stroke-linejoin="round"/>
<path d="M488.7 53.7515L506.813 75.5031L537 32" stroke="#4FE323" stroke-width="11.1006" stroke-linecap="round" stroke-linejoin="round"/>
<path d="M137 40.7515L155.113 62.5031C155.113 62.5031 160.009 55.446 164.169 49.4521M185.3 19L173.225 36.4012" stroke="#4FE323" stroke-width="11.1006" stroke-linecap="round" stroke-linejoin="round"/>
<path d="M157.7 40.7515L175.812 62.5031L206 19" stroke="#4FE323" stroke-width="11.1006" stroke-linecap="round" stroke-linejoin="round"/>
<path d="M815 46.7515L833.113 68.5031C833.113 68.5031 838.009 61.446 842.169 55.4521M863.3 25L851.225 42.4012" stroke="#4FE323" stroke-width="11.1006" stroke-linecap="round" stroke-linejoin="round"/>
<path d="M835.7 46.7515L853.813 68.5031L884 25" stroke="#4FE323" stroke-width="11.1006" stroke-linecap="round" stroke-linejoin="round"/>
</svg>
