<svg width="203" height="203" viewBox="0 0 203 203" fill="none" xmlns="http://www.w3.org/2000/svg">
<path d="M101.325 202.65C157.285 202.65 202.65 157.285 202.65 101.325C202.65 45.3647 157.285 0 101.325 0C45.3647 0 0 45.3647 0 101.325C0 157.285 45.3647 202.65 101.325 202.65Z" fill="#837F89"/>
<path opacity="0.2" d="M63.3283 158.32C63.3283 161.803 60.4785 164.653 56.9955 164.653H50.6626C47.1796 164.653 44.3298 161.803 44.3298 158.32V123.49C44.3298 120.007 47.1796 117.157 50.6626 117.157H56.9955C60.4785 117.157 63.3283 120.007 63.3283 123.49V158.32Z" fill="#231F20"/>
<path opacity="0.2" d="M158.32 158.32C158.32 161.803 155.47 164.653 151.987 164.653H145.655C142.172 164.653 139.322 161.803 139.322 158.32V123.49C139.322 120.007 142.172 117.157 145.655 117.157H151.987C155.47 117.157 158.32 120.007 158.32 123.49V158.32Z" fill="#231F20"/>
<path d="M63.3283 151.987C63.3283 155.471 60.4785 158.32 56.9955 158.32H50.6626C47.1796 158.32 44.3298 155.471 44.3298 151.987V117.157C44.3298 113.674 47.1796 110.824 50.6626 110.824H56.9955C60.4785 110.824 63.3283 113.674 63.3283 117.157V151.987Z" fill="black"/>
<path d="M158.32 151.987C158.32 155.471 155.47 158.32 151.987 158.32H145.655C142.172 158.32 139.322 155.471 139.322 151.987V117.157C139.322 113.674 142.172 110.824 145.655 110.824H151.987C155.47 110.824 158.32 113.674 158.32 117.157V151.987Z" fill="black"/>
<path opacity="0.2" d="M139.322 117.157H63.3283C52.8791 117.157 44.3298 108.608 44.3298 98.1586V96.892L50.6626 64.9113C53.8291 53.8289 60.7951 47.4961 69.6611 47.4961H132.989C141.855 47.4961 148.821 53.8289 151.671 64.9113V65.228L158.32 98.1586C158.32 108.608 149.771 117.157 139.322 117.157ZM56.9955 98.7919C57.3121 101.958 59.8452 104.491 63.3283 104.491H139.322C142.488 104.491 145.338 101.958 145.655 98.7919L139.639 68.0777C138.689 65.5446 136.789 60.1617 132.989 60.1617H69.6611C65.8614 60.1617 63.9616 65.5446 63.0116 68.0777L56.9955 98.7919Z" fill="#231F20"/>
<path d="M151.988 91.8258C151.988 98.7919 146.288 104.491 139.322 104.491H63.3282C56.3621 104.491 50.6626 98.7919 50.6626 91.8258L56.9954 60.1617C58.5786 53.8289 62.6949 47.4961 69.661 47.4961H132.989C139.955 47.4961 144.072 53.8289 145.655 60.1617L151.988 91.8258Z" stroke="black" stroke-width="17.1973" stroke-miterlimit="10"/>
<g opacity="0.2">
<path d="M164.653 132.989C164.653 139.955 158.954 145.655 151.987 145.655H50.6625C43.6964 145.655 37.9968 139.955 37.9968 132.989V117.157C37.9968 110.191 43.6964 104.491 50.6625 104.491H151.987C158.954 104.491 164.653 110.191 164.653 117.157V132.989Z" fill="black"/>
<path d="M151.987 151.987H50.6625C40.2134 151.987 31.6641 143.438 31.6641 132.989V117.157C31.6641 106.708 40.2134 98.1586 50.6625 98.1586H151.987C162.437 98.1586 170.986 106.708 170.986 117.157V132.989C170.986 143.438 162.437 151.987 151.987 151.987ZM50.6625 110.824C47.1795 110.824 44.3297 113.674 44.3297 117.157V132.989C44.3297 136.472 47.1795 139.322 50.6625 139.322H151.987C155.471 139.322 158.32 136.472 158.32 132.989V117.157C158.32 113.674 155.471 110.824 151.987 110.824H50.6625Z" fill="black"/>
</g>
<path d="M164.653 126.656C164.653 133.622 158.954 139.322 151.987 139.322H50.6625C43.6964 139.322 37.9968 133.622 37.9968 126.656V110.824C37.9968 103.858 43.6964 98.1586 50.6625 98.1586H151.987C158.954 98.1586 164.653 103.858 164.653 110.824V126.656Z" fill="black" stroke="black" stroke-width="17.1973" stroke-miterlimit="10"/>
<path d="M66.4946 120.323C66.4946 127.29 60.795 132.989 53.829 132.989C46.8629 132.989 41.1633 127.29 41.1633 120.323C41.1633 113.357 46.8629 107.658 53.829 107.658C60.795 107.658 66.4946 113.357 66.4946 120.323Z" fill="white" stroke="black" stroke-width="8.59863" stroke-miterlimit="10"/>
<path d="M161.487 120.323C161.487 127.29 155.787 132.989 148.821 132.989C141.855 132.989 136.155 127.29 136.155 120.323C136.155 113.357 141.855 107.658 148.821 107.658C155.787 107.658 161.487 113.357 161.487 120.323Z" fill="white" stroke="black" stroke-width="8.59863" stroke-miterlimit="10"/>
</svg>
